<?xml version="1.0" standalone="no"?>
<!DOCTYPE svg PUBLIC "-//W3C//DTD SVG 20010904//EN"
 "http://www.w3.org/TR/2001/REC-SVG-20010904/DTD/svg10.dtd">
<svg version="1.0" xmlns="http://www.w3.org/2000/svg"
 width="424.000000pt" height="424.000000pt" viewBox="0 0 424.000000 424.000000"
 preserveAspectRatio="xMidYMid meet">
<metadata>
Created by potrace 1.11, written by Peter Selinger 2001-2013
</metadata>
<g transform="translate(0.000000,424.000000) scale(0.100000,-0.100000)"
fill="#000000" stroke="none">
<path d="M2966 4036 c-372 -189 -414 -208 -596 -273 -143 -51 -287 -88 -404
-103 -45 -6 -99 -13 -121 -16 -524 -68 -938 -346 -1154 -774 -57 -112 -106
-241 -142 -375 -31 -112 -33 -131 -34 -295 -2 -185 11 -309 46 -444 72 -284
219 -540 449 -782 l58 -61 16 31 c9 17 31 56 50 86 76 126 514 866 538 908 10
18 26 44 34 58 9 13 14 24 10 24 -3 0 -67 -18 -143 -41 -76 -22 -223 -65 -328
-95 -174 -50 -344 -100 -420 -123 -82 -25 -82 -24 -13 41 36 34 155 149 263
253 109 105 223 215 255 245 32 30 105 100 162 155 296 285 555 534 588 565
20 19 128 123 241 231 112 108 229 221 260 250 49 47 289 277 508 487 192 185
237 231 219 221 -2 -1 -155 -79 -342 -173z"/>
<path d="M3125 3229 c-27 -46 -55 -93 -61 -104 -10 -19 -95 -162 -300 -506
-51 -87 -102 -172 -112 -190 -11 -19 -45 -76 -76 -128 -69 -113 -90 -109 189
-28 66 20 221 65 345 101 124 35 256 74 293 86 38 12 71 19 73 17 4 -4 -92
-98 -444 -435 -378 -363 -464 -445 -762 -732 -106 -102 -218 -210 -250 -240
-51 -49 -303 -290 -504 -484 -39 -37 -138 -133 -221 -212 -255 -244 -370 -357
-360 -352 6 2 179 88 385 190 432 215 559 268 736 308 143 33 165 37 304 55
25 3 72 10 105 16 33 6 69 12 80 13 73 13 237 68 340 114 307 140 548 382 694
697 50 108 109 287 128 384 2 14 6 28 9 33 13 21 20 410 9 493 -16 118 -21
144 -41 215 -67 242 -178 426 -394 652 l-115 120 -50 -83z"/>
</g>
</svg>
