<?xml version="1.0" encoding="utf-8"?>
<!-- Generator: Adobe Illustrator 22.0.1, SVG Export Plug-In . SVG Version: 6.00 Build 0)  -->
<svg version="1.1" id="Capa_1" xmlns="http://www.w3.org/2000/svg" xmlns:xlink="http://www.w3.org/1999/xlink" x="0px" y="0px"
	 viewBox="0 0 376 497" style="enable-background:new 0 0 376 497;" xml:space="preserve">
<style type="text/css">
	.st0{fill:#F2A900;}
</style>
<g>
	<path class="st0" d="M373,200.7c7.7-51.7-31.6-79.6-85.5-98.1L305,32.6l-42.7-10.6l-17,68.2c-11.2-2.8-22.7-5.4-34.2-8l17.1-68.7
		L185.6,2.8l-17.5,70.1c-9.3-2.1-18.4-4.2-27.2-6.4l0-0.2L82.1,51.5L70.8,97.1c0,0,31.7,7.3,31,7.7c17.3,4.3,20.4,15.7,19.9,24.8
		l-19.9,79.8c1.2,0.3,2.7,0.8,4.4,1.4c-1.4-0.3-2.9-0.7-4.5-1.1L73.7,321.6c-2.1,5.2-7.5,13.1-19.5,10.1c0.4,0.6-31-7.7-31-7.7
		L2,372.9l55.5,13.8c10.3,2.6,20.4,5.3,30.4,7.8l-17.7,70.9l42.6,10.6l17.5-70.2c11.6,3.2,22.9,6.1,34,8.8L147,484.6l42.7,10.6
		l17.7-70.7c72.7,13.8,127.5,8.2,150.5-57.6c18.6-53-0.9-83.5-39.2-103.5C346.4,257,367.4,238.6,373,200.7z M171.5,369.2l21.4-99.2
		l-65.1-14.1l122.9-113.8l-21.4,99.2l65.1,14.1L171.5,369.2z"/>
</g>
</svg>
