<?xml version="1.0" encoding="utf-8"?>
<!-- Generator: Adobe Illustrator 22.0.1, SVG Export Plug-In . SVG Version: 6.00 Build 0)  -->
<svg version="1.1" id="Capa_1" xmlns="http://www.w3.org/2000/svg" xmlns:xlink="http://www.w3.org/1999/xlink" x="0px" y="0px"
	 viewBox="0 0 134.3 177.8" style="enable-background:new 0 0 134.3 177.8;" xml:space="preserve">
<style type="text/css">
	.st0{fill:#F2A900;}
</style>
<g>
	<path class="st0" d="M132.8,71.8c2.7-18.4-11.2-28.2-30.3-34.8l6.2-24.9L93.5,8.3l-6,24.2c-4-1-8.1-1.9-12.1-2.9l6.1-24.4L66.3,1.5
		l-6.2,24.9c-3.3-0.8-6.5-1.5-9.7-2.3l0-0.1l-20.9-5.2l-4,16.2c0,0,11.2,2.6,11,2.7c6.1,1.5,7.2,5.6,7.1,8.8l-7.1,28.3
		c0.4,0.1,1,0.3,1.6,0.5c-0.5-0.1-1-0.3-1.6-0.4l-9.9,39.7c-0.7,1.9-2.7,4.7-6.9,3.6c0.1,0.2-11-2.7-11-2.7l-7.5,17.3l19.7,4.9
		c3.7,0.9,7.3,1.9,10.8,2.8l-6.3,25.2l15.1,3.8l6.2-24.9c4.1,1.1,8.1,2.2,12.1,3.1l-6.2,24.8l15.1,3.8l6.3-25.1
		c25.8,4.9,45.2,2.9,53.4-20.4c6.6-18.8-0.3-29.6-13.9-36.7C123.3,91.7,130.8,85.2,132.8,71.8z M61.3,131.5l7.6-35.2l-23.1-5
		l43.6-40.4l-7.6,35.2l23.1,5L61.3,131.5z"/>
</g>
</svg>
