<?xml version="1.0" encoding="utf-8"?>
<!-- Generator: Adobe Illustrator 22.0.1, SVG Export Plug-In . SVG Version: 6.00 Build 0)  -->
<svg version="1.1" xmlns="http://www.w3.org/2000/svg" xmlns:xlink="http://www.w3.org/1999/xlink" x="0px" y="0px"
	 viewBox="0 0 505.1 325" style="enable-background:new 0 0 505.1 325;" xml:space="preserve">
<style type="text/css">
	.st0{clip-path:url(#SVGID_2_);fill:#292E35;}
	.st1{fill:url(#SVGID_3_);}
	.st2{opacity:0.13;fill:#FFFFFF;enable-background:new    ;}
	.st3{opacity:0.13;fill:#4285B9;enable-background:new    ;}
</style>
<g id="Layer_1">
</g>
<g id="Layer_2">
	<g>
		<defs>
			<rect id="SVGID_1_" width="505.7" height="325"/>
		</defs>
		<clipPath id="SVGID_2_">
			<use xlink:href="#SVGID_1_"  style="overflow:visible;"/>
		</clipPath>
		<rect id="Rectángulo_961" y="-34.1" class="st0" width="546.9" height="359.1"/>
	</g>
	<linearGradient id="SVGID_3_" gradientUnits="userSpaceOnUse" x1="646.6199" y1="-191.7134" x2="113.6199" y2="113.2866">
		<stop  offset="0" style="stop-color:#0E0E10"/>
		<stop  offset="0.402" style="stop-color:#404753"/>
		<stop  offset="0.8339" style="stop-color:#282D35"/>
		<stop  offset="1" style="stop-color:#1F2329"/>
	</linearGradient>
	<path class="st1" d="M0,0v156.9c2.6-1.4,5.1-2.3,7.1-2.7c15.9-3,62,57.5,95.4,60.5c33.4,3,66.8-39.3,101.7-92.8
		c35-53.4,74.7-61.5,158.9-10.1S498.2,0,505.7,0H0z"/>
	<path class="st2" d="M505.7,146.2c-8.6,5.5-16.6,11.8-24.6,18c-21.8,16.9-42.4,33-70.5,33c-28,0-50.8-30.4-72.8-59.7
		c-23.1-30.8-46.9-62.6-78.6-62.6c-0.3,0-0.5,0-0.8,0c-31.6,0.5-48.5,35.3-66.4,72.1c-16.9,34.9-34.5,71-64.5,71.1h-0.2
		c-32.8,0-51-18.1-68.7-35.6c-15.1-14.9-29.3-29-51.6-29.1l0,1c20.8,0,34.7,13.8,49.5,28.5c17.1,17,36.6,36.2,70.8,36.2h0.3
		c31.8-0.1,48.8-35,66.7-71.9c16.9-34.8,34.4-70.8,64.3-71.3c30.4-0.5,54.2,31.2,77.2,61.9c23.3,31.1,45.3,60.4,74.9,60.4
		c29.4,0,50.3-16.3,72.4-33.5c7.4-5.7,14.8-11.5,22.6-16.7V146.2z"/>
	<path class="st3" d="M505.7,137.7c-21.1,3.8-37.1,19.3-52.7,34.4c-17.5,16.9-34.1,33-56.6,33c-22.5,0-40.8-30.4-58.4-59.7
		c-18.5-30.8-37.6-62.6-63.1-62.6c-0.2,0-0.4,0-0.6,0c-25.4,0.5-39,35.3-53.3,72.1c-13.6,34.9-27.7,71-51.8,71.1h-0.2
		c-26.3,0-41-18.1-55.2-35.6c-12.1-14.9-23.6-29-41.4-29.1v1c16.7,0,27.9,13.8,39.7,28.5c13.8,17,29.4,36.2,56.8,36.2h0.2
		c25.5-0.1,39.1-35,53.5-71.9c13.6-34.8,27.6-70.8,51.6-71.3c24.4-0.5,43.5,31.2,62,61.9c18.7,31.1,36.4,60.4,60.2,60.4
		c23.6,0,40.4-16.3,58.2-33.5c15.3-14.8,31-29.9,51.1-33.8V137.7z"/>
</g>
</svg>
